<svg height="384pt" viewBox="0 0 384 384" width="384pt" xmlns="http://www.w3.org/2000/svg"><path d="m336 0h-288c-26.472656 0-48 21.527344-48 48v288c0 26.472656 21.527344 48 48 48h288c26.472656 0 48-21.527344 48-48v-288c0-26.472656-21.527344-48-48-48zm-192 32h96v24h-96zm96 320h-96v-24h96zm112-16c0 8.824219-7.175781 16-16 16h-64v-24c0-17.648438-14.351562-32-32-32h-96c-17.648438 0-32 14.351562-32 32v24h-64c-8.824219 0-16-7.175781-16-16v-288c0-8.824219 7.175781-16 16-16h64v24c0 17.648438 14.351562 32 32 32h96c17.648438 0 32-14.351562 32-32v-24h64c8.824219 0 16 7.175781 16 16zm0 0"/><path d="m240 112h-96c-17.648438 0-32 14.351562-32 32v96c0 17.648438 14.351562 32 32 32h96c17.648438 0 32-14.351562 32-32v-96c0-17.648438-14.351562-32-32-32zm0 128h-96l-.023438-96h96.023438zm0 0"/><path d="m72 64c-8.832031 0-16 7.167969-16 16v32c0 8.832031 7.167969 16 16 16s16-7.167969 16-16v-32c0-8.832031-7.167969-16-16-16zm0 0"/><path d="m72 160c-8.832031 0-16 7.167969-16 16v32c0 8.832031 7.167969 16 16 16s16-7.167969 16-16v-32c0-8.832031-7.167969-16-16-16zm0 0"/><path d="m72 256c-8.832031 0-16 7.167969-16 16v32c0 8.832031 7.167969 16 16 16s16-7.167969 16-16v-32c0-8.832031-7.167969-16-16-16zm0 0"/><path d="m312 64c-8.832031 0-16 7.167969-16 16v32c0 8.832031 7.167969 16 16 16s16-7.167969 16-16v-32c0-8.832031-7.167969-16-16-16zm0 0"/><path d="m312 160c-8.832031 0-16 7.167969-16 16v32c0 8.832031 7.167969 16 16 16s16-7.167969 16-16v-32c0-8.832031-7.167969-16-16-16zm0 0"/><path d="m312 256c-8.832031 0-16 7.167969-16 16v32c0 8.832031 7.167969 16 16 16s16-7.167969 16-16v-32c0-8.832031-7.167969-16-16-16zm0 0"/></svg>