<svg height="384pt" viewBox="0 0 384 384" width="384pt" xmlns="http://www.w3.org/2000/svg"><path d="m352 0h-176c-17.648438 0-32 14.351562-32 32v40h-40c-17.648438 0-32 14.351562-32 32v40h-40c-17.648438 0-32 14.351562-32 32v176c0 17.648438 14.351562 32 32 32h176c17.648438 0 32-14.351562 32-32v-40h40c17.648438 0 32-14.351562 32-32v-40h40c17.648438 0 32-14.351562 32-32v-176c0-17.648438-14.351562-32-32-32zm-264.0625 175.992188c.023438 0 .039062.007812.0625.007812h120v104h-176v-104zm-55.9375 176.007812v-40h176v40zm248-72h-40v-104c0-17.648438-14.351562-32-32-32h-104v-40l55.9375-.007812c.023438 0 .039062.007812.0625.007812h120zm72-72h-40v-104c0-17.648438-14.351562-32-32-32h-104v-40l176-.015625zm0 0"/></svg>