<svg height="384pt" viewBox="0 0 384 384" width="384pt" xmlns="http://www.w3.org/2000/svg"><path d="m373.558594 73.0625c13.824218-13.824219 13.824218-36.300781 0-50.125l-12.503906-12.503906c-13.816407-13.832032-36.3125-13.832032-50.125 0l-18.203126 18.199218c-29.292968-18.128906-63.804687-28.632812-100.726562-28.632812-8.832031 0-16 7.167969-16 16v32c0 8.832031 7.167969 16 16 16s16-7.167969 16-16v-15.199219c75.472656 7.527344 135.640625 67.734375 143.175781 143.199219h-15.175781c-8.832031 0-16 7.167969-16 16s7.167969 16 16 16h15.191406c-7.527344 75.472656-67.71875 135.664062-143.191406 143.191406v-15.191406c0-8.832031-7.167969-16-16-16s-16 7.167969-16 16v15.175781c-75.472656-7.535156-135.671875-67.703125-143.199219-143.175781h15.199219c8.832031 0 16-7.167969 16-16s-7.167969-16-16-16h-32c-8.832031 0-16 7.167969-16 16 0 105.863281 86.136719 192 192 192s192-86.136719 192-192c0-36.921875-10.503906-71.433594-28.640625-100.734375zm-40-40c1.34375-1.34375 3.53125-1.34375 4.875 0l12.503906 12.503906c1.34375 1.34375 1.34375 3.53125 0 4.875l-14.867188 14.863282c-5.414062-6.152344-11.222656-11.960938-17.375-17.375zm0 0"/><path d="m192 208c4.097656 0 8.183594-1.558594 11.3125-4.6875 6.246094-6.25 6.246094-16.375 0-22.625l-96-96c-6.25-6.246094-16.375-6.246094-22.625 0-6.246094 6.25-6.246094 16.375 0 22.625l96 96c3.128906 3.128906 7.214844 4.6875 11.3125 4.6875zm0 0"/></svg>